<?xml version="1.0" encoding="utf-8"?>
<!-- Generator: Adobe Illustrator 23.1.0, SVG Export Plug-In . SVG Version: 6.00 Build 0)  -->
<svg version="1.1" id="Layer_1" xmlns="http://www.w3.org/2000/svg" xmlns:xlink="http://www.w3.org/1999/xlink" x="0px" y="0px"
	 viewBox="0 0 128 128" style="enable-background:new 0 0 128 128;" xml:space="preserve">
<style type="text/css">
	.st0{fill:none;stroke:#000000;stroke-miterlimit:10;}
	.st1{fill:#FF2020;}
</style>
<path class="st0" d="M102.76-25.71"/>
<g>
	<g>
		<g>
			<g>
				<g>
					<path class="st1" d="M123.23,107.13c0.04,0.25,1.17-0.99,1.41-1.18C124.13,105.97,122.93,107.45,123.23,107.13z"/>
					<polygon class="st1" points="118.12,107.41 118.65,106.97 117.1,107.8 					"/>
					<path class="st1" d="M115.87,105.13c-1.8,2.24,1.15,0.49,0.84,1.61l-0.39,0.53l1.81-1.45
						C117.37,105.59,115.65,106.04,115.87,105.13z"/>
					<path class="st1" d="M119.01,99.55c-0.71,0.86-0.93,0.42,0.04,0.53c0.06-0.11,0.1-0.17,0.15-0.25
						C119.14,99.78,119.07,99.71,119.01,99.55z"/>
					<path class="st1" d="M119.2,99.82C119.49,100,119.7,99.01,119.2,99.82L119.2,99.82z"/>
					<path class="st1" d="M117.64,99.17l1.01-0.39c0.4-0.53,0.22-0.91,0.66-1.15C118.61,97.7,118.22,98.23,117.64,99.17z"/>
					<path class="st1" d="M115.88,100.35l0.46-0.13C116.5,99.99,116.53,99.88,115.88,100.35z"/>
					<path class="st1" d="M117.31,99.94l-0.97,0.28c-0.28,0.37-0.93,1.03,0.38-0.07C116.09,100.72,116.74,100.21,117.31,99.94z"/>
					<path class="st1" d="M117.2,100.44c-0.26,0.62-0.31,1.12-1.32,1.51C116.75,102.27,118.08,100.76,117.2,100.44z"/>
					<path class="st1" d="M113.67,107.11l-0.36,0.83l0.88-0.48C113.76,107.69,114.29,106.46,113.67,107.11z"/>
					<path class="st1" d="M116.72,96.17c-0.45,0.41-1.04,1.25-1.56,1.83l0.73-0.26C116.06,97.32,116.1,96.83,116.72,96.17z"/>
					<path class="st1" d="M115.16,98l-1.08,0.39C114.3,98.79,114.71,98.49,115.16,98z"/>
					<polygon class="st1" points="113.58,102.54 115.7,101.56 113.45,102.46 					"/>
					<polygon class="st1" points="115.45,94.79 116.63,93.99 114.78,95.15 					"/>
					<path class="st1" d="M114.39,94.09c0.97-0.68,1.19-1.6,1.85-1.95c-0.39-0.09-1.3,0.41-2.12,0.87
						C114.67,92.85,114.79,93.15,114.39,94.09z"/>
					<path class="st1" d="M112.89,93.63c0.29-0.1,0.75-0.35,1.23-0.62C113.83,93.1,113.45,93.27,112.89,93.63z"/>
					<path class="st1" d="M113.7,97.59c0.23-0.29,0.86-1.02,0.95-1.5l-1.07,1.35C113.61,97.48,113.65,97.54,113.7,97.59z"/>
					<path class="st1" d="M113.54,97.48l0.03-0.04c-0.12-0.18-0.2-0.31-0.23-0.36C113.38,97.12,113.43,97.24,113.54,97.48z"/>
					<path class="st1" d="M113.73,97.63c-0.01-0.02-0.02-0.03-0.03-0.04C113.59,97.72,113.56,97.77,113.73,97.63z"/>
					<path class="st1" d="M113.76,100.54c-0.88,0.47-2.03,0.78-2.64,2.22C112.09,102.08,112.44,101.25,113.76,100.54z"/>
					<path class="st1" d="M112.39,99.31l0.09,0.65c0.31-0.33,0.71-0.86,1.14-1.1L112.39,99.31z"/>
					<polygon class="st1" points="111.82,99.52 112.39,99.31 112.35,99.07 					"/>
					<path class="st1" d="M112.4,95.39c-0.69,0.37-0.9,0.24-1.19,0.13c-0.03,0.45,0.06,0.8,0.28,1
						C111.9,96.17,112.67,95.58,112.4,95.39z"/>
					<path class="st1" d="M112.85,96.51c-0.04,0.02-0.07,0.02-0.1,0.03C112.66,96.67,112.65,96.72,112.85,96.51z"/>
					<path class="st1" d="M109.27,93.58c-0.05,0.08-0.13,0.17-0.19,0.25c0.07-0.07,0.14-0.13,0.22-0.2L109.27,93.58z"/>
					<path class="st1" d="M111.3,96.78c-0.07,0.39,0.32,0.19,0.78-0.09c-0.24,0-0.44-0.04-0.59-0.17
						C111.3,96.68,111.19,96.79,111.3,96.78z"/>
					<path class="st1" d="M111.78,93.66c-0.17,0.34-0.29,0.65-0.39,0.94C111.7,94.13,112.13,93.37,111.78,93.66z"/>
					<path class="st1" d="M113.02,96.16c0.03-0.01,0.06-0.03,0.08-0.03C113.31,95.82,113.19,95.95,113.02,96.16z"/>
					<path class="st1" d="M113.02,96.16c-0.26,0.09-0.62,0.33-0.95,0.53c0.19,0,0.41-0.04,0.67-0.14
						C112.81,96.44,112.92,96.29,113.02,96.16z"/>
					<path class="st1" d="M100.95,100.77c1.15-1.1,2.6-1.72,1.76-0.15c1.19-0.49,4.64-4.41,6.38-6.79c-0.5,0.48-0.95,0.93-1.97,1.23
						c-0.48,0.74-0.62,2.24-1.94,2.95c-1.06,0.1,0-0.79,0.35-1.62c-1.19,1.6-2.64,1.42-4.58,3.59l1.15-0.3
						C101.78,100,101.12,100.36,100.95,100.77z"/>
					<path class="st1" d="M109.67,94.64l0.29,0.01c0.02-0.37,0.35-0.94,1-2.04c-0.8,0.3-1.26,0.67-1.65,1.02l0.59,0.89L109.67,94.64
						z"/>
					<path class="st1" d="M110.64,95.32c-1.33,1.11-2.21,1.27-3.31,2.81c0.53,0.35,1.33-0.71,2.12-0.98
						c-1.02-0.4,0.88-0.48,1.06-1.68c0.35-0.07,0.54-0.01,0.71,0.06c0.02-0.28,0.08-0.58,0.19-0.93c-0.02,0.03-0.04,0.06-0.06,0.09
						l0.01,0c-0.01,0.01-0.01,0.01-0.02,0.02c-0.12,0.18-0.21,0.29-0.15,0.17c-0.02,0.01-0.03,0.01-0.04,0.01
						C110.96,95.04,110.8,95.18,110.64,95.32c0.05-0.46,0.29-0.35,0.5-0.43c0.06-0.06,0.13-0.11,0.19-0.18
						c0-0.01,0.01-0.01,0.01-0.02l-1.38-0.04C109.94,94.97,110.16,95.12,110.64,95.32z"/>
					<path class="st1" d="M108.12,105.01c0.08-0.13,0.17-0.22,0.26-0.31C108.19,104.81,108.07,104.89,108.12,105.01z"/>
					<path class="st1" d="M108.56,103.98c0.22-0.12,0.75-0.56,0.79-0.27c-0.22,0.51-0.58,0.58-0.98,0.99
						c0.42-0.22,1.23-0.52,1.5-1.44l-0.22,0.12c0.13-0.71,1.28-2.6,1.49-2.72C110.15,101.85,109.45,102.71,108.56,103.98z"/>
					<path class="st1" d="M109.27,99.94l-1.19,0.01l-0.75,1.36l0.62-0.65C108.04,101.24,108.74,100.39,109.27,99.94z"/>
					<polygon class="st1" points="109.81,92.9 111.17,91.69 109.02,93.17 					"/>
					<polygon class="st1" points="108.89,92.29 110.03,91.2 109.15,91.67 					"/>
					<path class="st1" d="M51.44,62.85l-0.49,0.14C51.13,62.98,51.29,62.92,51.44,62.85z"/>
					<path class="st1" d="M52.63,64.18l0.58-0.52C52.85,63.91,52.6,64.11,52.63,64.18z"/>
					<path class="st1" d="M89.79,73.54c0.79-1.3,2.12-3.21,0.9-1.92l-1.15,1.31C89.93,72.89,89.94,73.16,89.79,73.54z"/>
					<path class="st1" d="M69.49,67.96c-0.09,0.14-0.2,0.3-0.3,0.45c0.48-0.36,0.93-0.69,1.34-1
						C70.21,67.58,69.86,67.77,69.49,67.96z"/>
					<path class="st1" d="M64.24,72.88l0.45-1.13C64.5,72.1,64.34,72.47,64.24,72.88z"/>
					<path class="st1" d="M43.24,57.28l-1.45,1.05C42.11,58.64,42.6,57.87,43.24,57.28z"/>
					<path class="st1" d="M100.52,84.87c0.26-0.7,0.29-1.08,0.19-1.29C100.28,84.55,99.43,85.83,100.52,84.87z"/>
					<path class="st1" d="M64.93,50.29c-0.33,0.12-0.62,0.32-0.89,0.6C64.35,50.79,64.65,50.61,64.93,50.29z"/>
					<path class="st1" d="M100.07,82.96c-0.08,0.16-0.11,0.26-0.17,0.4c0.37-0.05,0.69-0.05,0.81,0.22
						C101.04,82.87,101.14,82.32,100.07,82.96z"/>
					<path class="st1" d="M19.2,31.35c0.03-0.07,0.04-0.12,0.09-0.2C19.12,31.31,19.14,31.34,19.2,31.35z"/>
					<path class="st1" d="M24.26,11.67c0.15-0.01,0.27,0.11,0.39,0.2C24.68,11.74,24.58,11.66,24.26,11.67z"/>
					<path class="st1" d="M106.31,88.66C106.55,88.74,106.47,88.55,106.31,88.66L106.31,88.66z"/>
					<path class="st1" d="M102.27,94.32c-0.17,0.1-0.37,0.25-0.66,0.53C101.91,94.57,102.12,94.41,102.27,94.32z"/>
					<path class="st1" d="M90.83,88.99c0,0,0-0.01-0.01-0.02C90.62,89.26,90.66,89.21,90.83,88.99z"/>
					<path class="st1" d="M106,89.47c0.09-0.21,0.14-0.41,0.15-0.57C106.09,89.02,106.04,89.2,106,89.47z"/>
					<path class="st1" d="M106.55,88.85c0,0.11,0.02,0.19,0.02,0.26C106.79,88.93,106.91,88.78,106.55,88.85z"/>
					<path class="st1" d="M106.02,88.5c0.11,0.07,0.14,0.22,0.14,0.39c0.05-0.12,0.11-0.2,0.16-0.23
						C106.24,88.63,106.15,88.59,106.02,88.5z"/>
					<path class="st1" d="M35.9,41.4c0.03-0.05,0.04-0.09,0.08-0.15C35.31,41.6,35.46,41.59,35.9,41.4z"/>
					<path class="st1" d="M72.81,82.08c0.02,0,0.06-0.03,0.08-0.04c0.01-0.02,0.01-0.05,0.02-0.07L72.81,82.08z"/>
					<path class="st1" d="M71.31,82.41c1.77-1.28,1.73-0.95,1.6-0.44l3.33-3.74L71.31,82.41z"/>
					<path class="st1" d="M48.06,60.19l-0.69,1.52c-2.31,1.32-2.05,0.34-3.2,2.28c3.89-3.79,2,1.21,5.88-2.59l-0.53,1.08
						c-0.04-0.11-0.28,0.1-0.32-0.01c-1.3,2.37,3.16-2.39,3.3-1.17c-0.06,0.53-0.44,1.25-1.06,1.55l1.48-0.43
						c0.08,0.23-0.62,0.86-0.7,0.63l1.11,0.5l-0.12,0.11c0.71-0.49,1.91-1.16,2.43-1.43c-0.35,0.76-0.51,0.31-0.93,0.84l1.37-0.49
						c-0.81,1.18-2.15,1.78-2.31,1.33c-3.41,4.26,1.33-0.6,0,2.55l-0.91,0.07c-1.9,2.45-0.78,1.99-1.66,3.83
						c0.59-0.82,2.46-4.38,3.9-4.86c-0.15,0.43-0.11,0.74,0.92,0.23c-1.36,1.37-0.77,1.29-0.37,1.53l-1.83,1.79
						c0.87-0.18,1.76-1.13,2.77-1.74c0.21,0.56-1.11,2.05-2.2,3.32c0.33,0.9,1.81-2.68,2.89-2.29c-0.18,1.21,0.92,0.82,2.62,0.35
						c-0.26,0.99-1.17,1.05-1.56,1.7l1.76-1.13c0.04,0.11-0.42,0.53-0.66,0.74c0.83-0.29,1.83-1.79,2.74-1.86
						c2.1-1.89-2.04,3.78,0.74,2.03c-0.38,0.64-1.17,1.05-1.83,1.79c2.2-0.78,1.69-0.47,4.27-1.89l-0.68,1.69
						c0.99-1.73,3.06-2.87,4.79-3.78c0.52-0.79,0.98-1.48,1.18-1.82l1.63-0.32c-0.22,0.38-0.9,0.93-1.77,1.58
						c0.19-0.11,0.38-0.21,0.55-0.32c-0.43,0.91-1.6,1.83-2.77,2.68c0.28-0.44,0.58-0.9,0.88-1.36c-1.26,0.94-2.63,2.01-3.65,3.11
						c0.25-0.17,0.51-0.27,0.7-0.28c-0.34,0.26-0.63,0.5-0.79,0.7c-0.17,0.21,0.3-0.12,0.87-0.48l-1.86,2.17l0.84-0.77l-0.4,2.12
						c2.64-1.42,6.16-3.89,7.97-3.75c-1.72,1.24-2.46,2.37-4.22,4.11c1.58-2.13-1.54,0.04-1.67-0.85c0.07,0.46-0.82,1.24-1.18,1.46
						l2.59-0.79c-1.45,1.42-0.88,1.27-1.24,2.1c2.65-3.02,2.56-1.22,3.79-1.73c-0.92,0.98-1.98,1.86-2.2,1.18
						c-1.63,2.63,3.96-2.7,2.64-0.4c-0.13-0.09-0.05-0.29-0.57,0.15c1.1-0.59,1.06,0.7,0.09,1.38l-0.13-0.09
						c0.39,1.06,2.19,2.22,4.7-0.08c-0.3,0.32-2.99,2.81-3.52,3.26l9.37-6.82c-2.18,1.96-6.64,7.33-8.41,7.9
						c-0.12,0.47-0.25,1.03,0.85,0.66c0.18-0.41,2.69-3.29,3.04-3.32c-1.85,2.75-0.92,1.54-2.33,4.05c0.26-0.62,3.69-3.67,3.87-3.29
						c-0.53,0.44-3.16,3.23-3.6,3.46l3.87-2.5c-0.74,0.4-2.72,2.67-3.46,3.73c0.55-0.7,0.55,0.66,1.05,0.53l0.44-1.03
						c0.31,1.27,5.24-3.71,5.85-2.77c-0.75,0.56-4.27,3.82-4.27,4.62c1.81-1.45,8.62-7.05,10.56-7.62l-0.8,1.07l1.59-0.54
						c-2.77,2.13-8.85,6.38-11.35,7.89c-0.44,1.03-1.02,1.18-0.49,1.54c-0.72,1.03-1.56,1.09-1.74,1.01l0.46,1.59
						c1.85-1.95,2.69-1.13,4.23-2.76l-3.08,0.87c1.85-1.95,6.03-4.77,6.42-3.71c-0.57,0.94-3.51,3.26-4.13,3.91
						c0.75-0.56,1.94-0.57,1.54-0.04l-1.32,0.71c-0.31,1.12,3.17-1.87,1.85,0.43c0.05,0.29-1.94,2.95-0.79,1.85
						c1.89-2.45,8.53-9.23,10.34-10.68c-0.09,0.21-1.19,2.96-2.06,4.22c-1.42,1.98-4.46,3.65-5.68,5.35c0.53-0.51,1.32-1,1.59-1.15
						c-0.27,0.62-1.68,1.54-1.06,1.69c1.98-1.87,0.62,0.94,1.81-1.45c0.92-0.18,0,0.8,0.53,1.15c1.1-1.39,4.62-3.86,5.55-4.04
						c-0.51,0.47-1.06,1.19-1.31,1.53c0.59,0.94,0.13,2.23,0.83,2.96c-0.4,0.53-0.62,1.44-1.59,2.13c0.44-0.24,1.19-0.8,1.46-0.63
						c-1.23,2.1-0.75-0.23-2.42,2.1c1.14-1.1,2.12-0.98,3.13-1.37c1.63-1.83-0.4-1.06-1.41-0.67c2.38-2.39,5.42-4.35,7.27-4.72
						c1.19,0-1.28,1.8-0.84,1.57c0.7,1.53,5.11-3.23,4.32-0.58c-1.15,1.89-3,3.05-4.01,4.23c-1.06,0.09,0.22-1.71-0.17-1.97
						l-0.31,1.12c-0.66,0.35-1.36,0.42-1.1-0.2c-1.05,1.68,1.63,2.14,1.23,4.26c0.66-0.36,1.45-0.63,1.94-1.36l-0.48-0.06
						c0.97-1.48,2.21-1.19,2.43-2.11c1.23-0.5,2.99-1.45,2.81-0.24l-1.63,1.83c0.49-0.52,0.69-1.37,0.02-0.98
						c0.98-0.56-1.55,3.14,0.95,1.1l0.84-1.56c1.24-0.51,3.53-1.9,3.44-0.9c1.5-1.92-0.3,0.09,1.37-2.24
						c-2.21,2.78-1.06-1.27-3.22,1.81c1.99-2.66,0.41-1.56,1.95-3.98c-0.56,0.59-0.94,1.25-1.04,0.59
						c-0.18,0.15-0.44,0.32-0.59,0.42c0-0.03,0.01-0.04,0.02-0.07c-0.01,0.03-0.03,0.06-0.05,0.09c-0.1,0.07-0.12,0.09-0.01,0.03
						c-0.16,0.34-0.39,0.72-0.67,1.07c-1.5,1.13-2.07,0.48-2.95,0.96c0.04-0.5,0.75-0.56,1.23-1.3l-1.32,0.71
						c1.24-1.3,1.5-2.72,2.78-2.93l-0.43-0.54c0.43-1,0.32-1.67-0.46-1.37c0.05-0.5-1.98,0.84-0.79,0.04l-1.54,0.04l0.31-0.32
						c-0.59-0.9-3.64,0.58-2.2-2.57c-0.57,0.07-1.22,0.21-1.28-0.57l1.01-1.18c-0.7,0.06,0.13-2.07-1.15-1.06
						c2.6-3.31-0.92-2.21-0.97-3.3l-1.45,1.42c-0.31-0.47-1.09-0.43-2.15-0.34l-1.23,1.3c-1.46,0.63-0.18-1.97-0.97-2.5
						c0.53-0.44,0.57-0.15,0.4,0.27c2.07-3.66-3.74,0.43-2.38-2.38c-0.64,0.29-0.61,0-0.42-0.44c0.02,0.01,0.06,0,0.11-0.02
						c0-0.03-0.03-0.06-0.06-0.09c0.14-0.3,0.31-0.63,0.42-0.92c-0.23,0.38-0.41,0.71-0.47,0.89c-0.16-0.11-0.53-0.16-1.05-0.05
						l1.27-1.45c-0.03,0-0.04-0.02-0.09-0.01c0.3-0.7-0.8,0.49-1.72,1.62c-0.33,0.12-0.69,0.3-1.09,0.55
						c2.03-2.37-1.28,0.21,0.84-2.36c-1.28,1.01-1.89-0.16-4.4,2.14c0.31-0.32,0.4-0.53,0.53-0.44c0.04-0.5,0.09-1-0.79-0.53
						l1.63-1.83l-2.82,1.84c0.75-1.36,1.24-2.1,2.87-3.14c-2.77,1.34-1.36,0.19-4,1.61l1.15-1.09c-0.26-0.18-2.11,0.98-1.32-0.08
						c1.63-2.63-2.15-2.72-1.44-5.97c-3.04,3.55,0.88-2.07-1.72,0.45c0.7-0.85,0.97-1.47,1.85-1.95c-1.41,0.12,0.26-2.21-2.33-0.49
						c0.71-0.86,1.28-1.01,1.67-1.54c-0.22,0.12-0.88,0.48-0.48-0.06c0.4-0.53,0.75-0.56,1.19-0.8c-0.79-0.53-3.25,1.82-5.55,4.03
						c0.73-1.4,0.41-1.42-1.3-0.18c0.62-0.86,1.19-1.82,1.87-1.68c-0.12-0.34-0.33-2.49-2.16-0.7c0.39-0.53-0.19-0.46-0.46-0.31
						c-0.41-0.62-0.29-0.83-0.97-1.17l-0.15,0.44c-2.38,1.99-0.91,0.07-1.58-0.08l0.23-0.21c0.63-2.51-1.16,0.35-0.29-2.37
						l-1.3,1.41c-3,2.84,0.89-2.54-0.76-1.96l-0.58,0.97c-1.29,0.71,3.14-4.8,3.21-5.46c0.19-0.32,0.51-0.31,0.78-0.4
						c0.95-2.5-1.87,1.68-2.86,1.52c0.85-1.07,2.57-2.31,2.36-2.87c0.58-0.97-4.23,2-2.92-0.37c-0.62,0.86-1.24,1.71-2.06,2
						c-0.67-0.14,1.67-3.9-1.02-1.93c0.15-0.26,0.32-0.47,0.51-0.66c-0.91,0.29-2.01-0.01-3.46,1.07c4.38-4.99-4.22,0.35,0.1-3.98
						l-1.2-0.73l0.47-0.42c-0.33-0.9-1.58-0.08-2.83,0.75c0.15-0.44,0.66-0.74,0.89-0.95c-0.03-1.77-0.3-1.67-3.21-0.27l1.32-1.48
						c-1.02,0.61,0.89-3.5-1.62-2.74c0.17-0.15,0.46-0.41,0.73-0.53c-2.64,0.66,1.5-6.26-3.96-1.51l-1.91,0.61
						c0.45,1.24-2.34,2.1-2.83,3.29c-0.63-0.03,0.67-2.4,1.34-2.26l-0.19,0.32c2.8-2.52-0.11-1.99,1.72-3.79
						c-1.8-1.53-1.96-4.63-3.41-6.3l-1.88,2.25l-0.43-0.66c0.34-0.62,1.42-1.81,1.73-1.34c0.96-1.38-1.63,0.34-2.09,0.77
						c0.07-1.6,2.7-2.12,2.52-2.4l-0.47-0.16l-0.17,0.31c-1.1,0.59-2.02,1.47-2.38,0.9c0.12-0.71,1.12-1.43,1.08-1.63
						c0.15-0.15,0.18-0.26-0.12-0.24l-0.51-0.86l-1.35,1.91c-1.11,0.5-0.56-0.73-2.09,1.44c2.38-3.32-1.54-3.58-0.95-4.75
						c-1.61,0.77-2.01,0.33-2.39-0.34c-0.21,0.47-1.96,2.39-2.19,1.72c3.94-3.64,0.82-2.47,3.17-5.57
						c-1.48,2.14-1.73-0.82-3.78,2.26c-0.07-0.68,1.39-1.45,2-2.62c-2.36,0.58-1.02-2.92-2.62-3.52c-0.52,0.48-1.09,1.43-2.06,1.94
						l1.9-3.07c-0.46,0.03-3.06,2.68-1.74,0.55c-0.36,0.48-0.91,1.19-1.21,1.21c0.25-4.58-6.4-2.41-4.06-9.16
						c-0.67,1.26-0.96,1.16-1.22,0.97c-0.08,0.38-1.23,1.23-1.87,1.93l0.95-2.79c-2.03,1.71-1.11-0.85-2.99,0.84l0.61-0.03
						c-2.5,1.73-4.14,5.25-6.9,7.91c2.83-1.98-2.4,4.7,1.74,1.97c-0.4,0.71-1.01,0.74-1.55,1.46c1.34-0.98,1.8-1.01,1.68-0.09
						l-0.33,0.24c1.42,0.84,0.76,2.48,1.28,4.51l1.24-1.44c0.1,0.45-0.27,0.93-0.47,1.39c2.34-1.72-0.65-0.88,1.87-2.84
						c-2.36,3.09,1.89,1.96-0.95,5.31c0.4,0.44,1.42-1.68,1.83-1.24l-0.72,0.95l1.18-0.98c0.1,0.45-0.81,1.64-1.51,2.37
						c0.02-0.15-0.39,0.01-0.52,0c-0.63,1.35,1.35,0.67,1.15,1.11l0.11-0.92c1.93,0.36,2.24,2.86,5.05,2.25l0.55-0.72
						c2.02-0.33-0.01,1.37,1.46,1.76l-0.18,0.12c0.81-0.45,1.38-0.52,1.56-0.19c-0.97,0.51-0.99,1.88-2.12,2.4
						c2.17-0.34,1.44-0.54,4.39-2.29l-0.91,1.19c1.16-0.75,1.67-1.23,2.41-1.04c-1.28,0.52-1.3,1.9-2.91,2.67
						c-1.31,3.27,3.76-0.88,0.86,2.93c3.34-2.46,0.76-2.46,1.63-2.83c0.74-1.16,2.53-1.81,2.55-1.21c0.25,0.38-3.18,4.25-2.34,4.98
						c-0.06-0.09-0.29,0.12-0.35,0.03c-0.44,1.03,1.58-0.43,0.74,1.13c1.95-1.56,0.37,0.56,2.66-1.62l-1.24-0.2
						c0.99-0.18,3.99-2.43,3.39-0.49c-0.5,0.4-1.29,0.8-1.76,0.99c-0.46,0.86,0.81-0.06,0.34,0.82c-2.29,2.19-1.36-0.38-3.5,0.9
						c-0.73,1.16,2.44-0.8-0.19,1.41c3.39-2.78,0.38,1.16,3.27-0.67l-1.37,1.31c0.29-0.13,1.1-0.59,1.22-0.4l-2.02,1.47
						c1.91-1.06-0.47,2.13,0.75,1.73c-0.9-0.82,1.42-1.81,2.03-3.16c2.86-0.74-2.89,4.13-1.05,4.67c-0.35,0.03,0.2-1.41,1.07-1.78
						c-0.05,0.5-0.26,1.32-0.83,2.17c1.07,0.5,1.26-1.51,2.42-2c-1.36,1.91,1.05-0.28,1.92-0.46l-1.36,1.37
						c0.03,1.77,3.08-2.61,2.83-0.75l-2.23,1.56l0.91-0.07l-1.64,1.47c1.61-0.7,1.46-0.26,1.47,0.63c0.85-1.07,2.53-2.42,2.97-2.07
						c-0.54,1.08-1.45,1.15-0.69,1.52c-0.98,0.73-2.19,1.66-1.18,0.16c-0.47,0.42-0.98,0.73-1.44,1.15
						c-0.64,1.22,0.53,0.94,0.74,1.13c-0.03-0.13-0.05-0.3,0.09-0.54l2.71-1.08c-0.38,0.64-0.89,0.95-1.4,1.26
						c0.32,0.01,1.06-0.5,1.42-0.37c-1.17,1.05-2.3,2.21-3.16,2.39l2.01-0.46c-0.43,0.54-0.92,1.73-1.43,2.04
						c-0.22,1.08,3.21-1.1,2.92,0.33c0.24-0.19,0.51-0.33,0.79-0.37c0.29,0.79-0.59,2.63,1.57,1.74l-1.62,2.35
						c0.95,0.05,2.01-3,3.59-2.92c1.22-0.05-1.47,1.92-1.82,2.68c1.29-0.71,3.84-2.25,2.76-0.09
						C48.22,60.65,48.38,60.21,48.06,60.19z M55.12,65.45c-0.4,0.17-1.53,0.82-0.81-0.08C56,63.94,55.36,64.8,55.12,65.45z
						 M67.78,71.5c-0.54,0.36-0.45,0-0.09-0.67C67.91,70.83,67.99,71,67.78,71.5z M103.41,87.99c-0.03,0.02-0.05,0.03-0.08,0.05
						C103.59,87.24,103.48,87.55,103.41,87.99z M103.37,89.13c0.24-0.13,0.43-0.33,0.6-0.54c-0.38,0.31-0.53,0.21-0.58-0.03
						C103.08,88.96,102.9,89.27,103.37,89.13z M43.31,30.46l-0.25,0.47C42.43,31.07,42.85,30.78,43.31,30.46z"/>
					<path class="st1" d="M64.85,72.31c0.2-0.26,0.44-0.53,0.69-0.79C65.27,71.7,65,71.96,64.85,72.31z"/>
					<path class="st1" d="M43.5,57.09c0.01-0.02,0-0.02,0-0.04c-0.09,0.07-0.18,0.15-0.27,0.23L43.5,57.09z"/>
					<path class="st1" d="M83.25,92.19c0.08-0.31,0.27-0.62,0.48-0.93C83.39,91.59,83.16,91.93,83.25,92.19z"/>
					<path class="st1" d="M108.62,89.73l-0.71,0c0.24,0.1,0,0.46-0.13,0.77C108.1,90.17,108.49,89.64,108.62,89.73z"/>
					<path class="st1" d="M103.28,101.26c0.22-0.12,0.13,0.09,0.35-0.03l0.62-0.65C103.99,100.41,103.32,100.76,103.28,101.26z"/>
					<path class="st1" d="M104.43,94.6c-1.12,1.18-0.51,1.01-0.04,1.04c-0.02-0.01-0.04-0.02-0.04-0.04
						C106.01,94.07,105.22,94.33,104.43,94.6z"/>
					<path class="st1" d="M104.48,95.66c0.13,0.02,0.24,0.07,0.26,0.2C105.41,95.25,104.78,95.64,104.48,95.66z"/>
					<path class="st1" d="M104.83,89.07c-0.18,0.41,1.54-1.4,1.14-0.86C107.56,86.87,103.42,89.2,104.83,89.07z"/>
					<polygon class="st1" points="100.86,98.59 102.18,97.08 100.9,98.09 					"/>
					<path class="st1" d="M99.93,95.6l0,0.79c0.23-0.24,0.42-0.33,0.59-0.38C100.33,95.72,100.34,95.17,99.93,95.6z"/>
					<path class="st1" d="M100.52,96.01c0.1,0.15,0.25,0.24,0.56,0.08C101,96.04,100.8,95.94,100.52,96.01z"/>
					<polygon class="st1" points="99.89,98.48 100.07,98.07 99.89,97.68 					"/>
					<path class="st1" d="M95.93,91.08l-0.84-0.03c-0.53,0.44-0.71,0.86-0.35,0.83C95.18,91.64,95.53,91.61,95.93,91.08z"/>
					<path class="st1" d="M93.37,96.27c0.18-0.41,0.48-0.74,0.88-1.27l-1.76,1.75L93.37,96.27z"/>
					<path class="st1" d="M91.7,95.42c-0.53,0.45-2.02,0.78-1.36,1.21C90.86,96.2,91.7,96.22,91.7,95.42z"/>
					<polygon class="st1" points="87.38,86.69 87.51,86.78 90.37,83.88 					"/>
					<path class="st1" d="M74.75,87.87c-0.17,1.2,1.9-1.66,1.5-0.34c0.8-0.56,0.32-1.08,1.03-1.55
						C76.25,86.4,76.49,85.83,74.75,87.87z"/>
					<path class="st1" d="M77.28,85.99c0.16-0.06,0.35-0.15,0.59-0.28C77.6,85.8,77.42,85.89,77.28,85.99z"/>
					<polygon class="st1" points="24.59,8.92 24.86,7.99 24.11,9.17 					"/>
					<path class="st1" d="M21.82,10.43l1.75-1.92l-1.85,1.47C21.88,9.97,22.18,9.96,21.82,10.43z"/>
					<path class="st1" d="M52.35,70.07l0.47-0.42c0.43-0.53,0.38-0.64,0.3-0.87L52.35,70.07z"/>
					<polygon class="st1" points="49.23,64.24 49.27,64.35 50.78,62.54 					"/>
					<path class="st1" d="M43.36,62.62c0.08,0.22,0.63,0.03,0.72,0.26C43.44,62.84,45.38,60.5,43.36,62.62z"/>
				</g>
			</g>
		</g>
	</g>
</g>
<g>
	<g>
		<g>
			<g>
				<g>
					<path class="st1" d="M22.03,119.34c-0.24,0.07,1.09,1.08,1.3,1.3C23.27,120.14,21.69,119.07,22.03,119.34z"/>
					<polygon class="st1" points="21.28,114.29 21.77,114.78 20.8,113.32 					"/>
					<path class="st1" d="M23.34,111.86c-2.39-1.59-0.38,1.18-1.53,0.97l-0.56-0.35l1.61,1.67
						C23.02,113.39,22.42,111.73,23.34,111.86z"/>
					<path class="st1" d="M29.18,114.5c-0.92-0.63-0.5-0.89-0.52,0.08c0.12,0.05,0.18,0.09,0.26,0.12
						C28.95,114.65,29.02,114.58,29.18,114.5z"/>
					<path class="st1" d="M28.92,114.71C28.77,115.02,29.78,115.14,28.92,114.71L28.92,114.71z"/>
					<path class="st1" d="M29.42,113.11l0.48,0.97c0.56,0.35,0.93,0.14,1.2,0.56C30.98,113.95,30.42,113.6,29.42,113.11z"/>
					<path class="st1" d="M28.09,111.46l0.18,0.44C28.5,112.05,28.61,112.06,28.09,111.46z"/>
					<path class="st1" d="M28.63,112.84l-0.37-0.94c-0.39-0.24-1.11-0.83,0.1,0.38C27.74,111.71,28.31,112.3,28.63,112.84z"/>
					<path class="st1" d="M28.12,112.78c-0.64-0.21-1.14-0.21-1.62-1.18C26.27,112.5,27.89,113.68,28.12,112.78z"/>
					<path class="st1" d="M21.18,109.85l-0.86-0.28l0.55,0.83C20.6,109.99,21.88,110.41,21.18,109.85z"/>
					<path class="st1" d="M32.32,111.94c-0.45-0.41-1.34-0.92-1.96-1.39l0.33,0.7C31.11,111.38,31.61,111.38,32.32,111.94z"/>
					<path class="st1" d="M30.36,110.55l-0.49-1.04C29.5,109.76,29.83,110.14,30.36,110.55z"/>
					<polygon class="st1" points="25.7,109.37 26.87,111.39 25.77,109.23 					"/>
					<polygon class="st1" points="33.57,110.56 34.47,111.67 33.15,109.93 					"/>
					<path class="st1" d="M34.17,109.45c0.77,0.9,1.7,1.04,2.11,1.67c0.05-0.39-0.53-1.25-1.06-2.03
						C35.43,109.62,35.15,109.77,34.17,109.45z"/>
					<path class="st1" d="M34.49,107.92c0.13,0.28,0.42,0.71,0.73,1.17C35.11,108.81,34.9,108.45,34.49,107.92z"/>
					<path class="st1" d="M30.63,109.06c0.31,0.21,1.09,0.76,1.58,0.81l-1.44-0.94C30.73,108.97,30.68,109.01,30.63,109.06z"/>
					<path class="st1" d="M30.73,108.9l0.05,0.03c0.16-0.14,0.29-0.22,0.34-0.26C31.07,108.7,30.95,108.77,30.73,108.9z"/>
					<path class="st1" d="M30.6,109.09c0.01-0.01,0.02-0.02,0.04-0.03C30.49,108.96,30.44,108.94,30.6,109.09z"/>
					<path class="st1" d="M27.71,109.38c-0.55-0.83-0.96-1.95-2.45-2.43C26.03,107.85,26.88,108.12,27.71,109.38z"/>
					<path class="st1" d="M28.8,107.91l-0.63,0.15c0.35,0.28,0.92,0.63,1.19,1.04L28.8,107.91z"/>
					<polygon class="st1" points="28.54,107.37 28.8,107.91 29.03,107.85 					"/>
					<path class="st1" d="M32.69,107.58c-0.43-0.65-0.32-0.88-0.24-1.17c-0.45,0.01-0.79,0.13-0.97,0.36
						C31.88,107.15,32.54,107.86,32.69,107.58z"/>
					<path class="st1" d="M31.62,108.13c-0.02-0.04-0.02-0.06-0.04-0.1C31.45,107.95,31.4,107.95,31.62,108.13z"/>
					<path class="st1" d="M34.21,104.33c-0.08-0.05-0.18-0.11-0.27-0.16c0.07,0.07,0.15,0.13,0.22,0.2L34.21,104.33z"/>
					<path class="st1" d="M31.21,106.61c-0.4-0.04-0.16,0.33,0.16,0.76c-0.02-0.24,0-0.44,0.12-0.6
						C31.32,106.61,31.19,106.5,31.21,106.61z"/>
					<path class="st1" d="M34.36,106.82c-0.35-0.14-0.67-0.23-0.97-0.3C33.88,106.78,34.68,107.14,34.36,106.82z"/>
					<path class="st1" d="M31.99,108.27c0.01,0.02,0.03,0.05,0.04,0.07C32.36,108.52,32.21,108.41,31.99,108.27z"/>
					<path class="st1" d="M31.99,108.27c-0.12-0.25-0.38-0.59-0.62-0.9c0.02,0.19,0.08,0.41,0.2,0.65
						C31.69,108.08,31.85,108.18,31.99,108.27z"/>
					<path class="st1" d="M26.3,96.68c1.19,1.04,1.95,2.43,0.31,1.73c0.59,1.14,4.81,4.22,7.33,5.75c-0.52-0.45-1.01-0.86-1.4-1.85
						c-0.78-0.41-2.28-0.42-3.11-1.67c-0.19-1.04,0.79-0.07,1.64,0.21c-1.7-1.04-1.66-2.5-3.98-4.24l0.4,1.11
						C27.14,97.44,26.72,96.81,26.3,96.68z"/>
					<path class="st1" d="M33.19,104.81l0.02,0.29c0.37-0.01,0.96,0.26,2.12,0.81c-0.37-0.77-0.78-1.2-1.17-1.55l-0.83,0.66
						L33.19,104.81z"/>
					<path class="st1" d="M32.61,105.83c-1.22-1.23-1.46-2.09-3.09-3.04c-0.3,0.55,0.83,1.25,1.17,2.02
						c0.31-1.04,0.55,0.83,1.77,0.9c0.1,0.34,0.06,0.53,0.01,0.71c0.27-0.01,0.59,0.03,0.94,0.11c-0.04-0.02-0.06-0.03-0.1-0.05
						l0,0.01c-0.01-0.01-0.01-0.01-0.02-0.02c-0.19-0.11-0.3-0.18-0.18-0.14c-0.01-0.02-0.01-0.03-0.01-0.04
						C32.91,106.13,32.76,105.98,32.61,105.83c0.47,0.01,0.38,0.26,0.48,0.45c0.07,0.06,0.12,0.12,0.19,0.18
						c0.01,0,0.01,0.01,0.02,0.01l-0.09-1.37C32.89,105.11,32.76,105.34,32.61,105.83z"/>
					<path class="st1" d="M22.75,104.16c0.14,0.07,0.23,0.15,0.33,0.23C22.96,104.21,22.86,104.1,22.75,104.16z"/>
					<path class="st1" d="M23.81,104.51c0.14,0.21,0.63,0.7,0.34,0.77c-0.53-0.17-0.63-0.53-1.08-0.88c0.26,0.4,0.63,1.17,1.56,1.37
						l-0.14-0.21c0.71,0.07,2.7,1.05,2.83,1.25C26.07,105.91,25.16,105.28,23.81,104.51z"/>
					<path class="st1" d="M27.89,104.87l-0.12-1.18l-1.42-0.63l0.7,0.56C26.49,103.75,27.4,104.38,27.89,104.87z"/>
					<polygon class="st1" points="34.93,104.8 36.26,106.05 34.59,104.03 					"/>
					<polygon class="st1" points="35.45,103.83 36.64,104.87 36.09,104.04 					"/>
					<path class="st1" d="M59.41,44.29l-0.19-0.47C59.26,43.99,59.32,44.14,59.41,44.29z"/>
					<path class="st1" d="M58.2,45.58l0.57,0.53C58.49,45.77,58.27,45.55,58.2,45.58z"/>
					<path class="st1" d="M52.32,83.26c1.36,0.67,3.38,1.83,1.99,0.72l-1.4-1.02C52.98,83.36,52.71,83.38,52.32,83.26z"/>
					<path class="st1" d="M55.99,62.64c-0.15-0.08-0.31-0.17-0.47-0.26c0.4,0.45,0.77,0.86,1.12,1.25
						C56.44,63.32,56.22,62.99,55.99,62.64z"/>
					<path class="st1" d="M50.63,57.85l1.16,0.35C51.43,58.04,51.04,57.91,50.63,57.85z"/>
					<path class="st1" d="M64.19,35.66l-1.18-1.35C62.73,34.66,63.54,35.08,64.19,35.66z"/>
					<path class="st1" d="M42.05,94.89c0.72,0.2,1.09,0.19,1.3,0.08C42.34,94.62,41,93.89,42.05,94.89z"/>
					<path class="st1" d="M73.13,56.59c-0.15-0.32-0.38-0.59-0.68-0.84C72.58,56.07,72.78,56.35,73.13,56.59z"/>
					<path class="st1" d="M43.91,94.28c-0.17-0.07-0.27-0.08-0.42-0.14c0.08,0.36,0.11,0.68-0.15,0.82
						C44.09,95.23,44.65,95.29,43.91,94.28z"/>
					<path class="st1" d="M87.74,9.58c0.07,0.03,0.12,0.03,0.21,0.07C87.77,9.5,87.74,9.52,87.74,9.58z"/>
					<path class="st1" d="M107.74,12.91c0.02,0.15-0.08,0.28-0.16,0.41C107.72,13.34,107.79,13.24,107.74,12.91z"/>
					<path class="st1" d="M38.82,100.96C38.76,101.21,38.94,101.11,38.82,100.96L38.82,100.96z"/>
					<path class="st1" d="M32.83,97.43c-0.12-0.16-0.29-0.35-0.59-0.61C32.55,97.1,32.73,97.3,32.83,97.43z"/>
					<path class="st1" d="M37.07,85.62c0-0.01,0.01,0,0.02-0.01C36.78,85.44,36.84,85.48,37.07,85.62z"/>
					<path class="st1" d="M37.99,100.72c0.22,0.07,0.42,0.11,0.58,0.1C38.44,100.78,38.26,100.74,37.99,100.72z"/>
					<path class="st1" d="M38.65,101.21c-0.11,0.01-0.18,0.03-0.26,0.05C38.6,101.47,38.76,101.56,38.65,101.21z"/>
					<path class="st1" d="M38.95,100.66c-0.06,0.12-0.2,0.16-0.38,0.17c0.12,0.04,0.21,0.09,0.24,0.14
						C38.84,100.89,38.88,100.8,38.95,100.66z"/>
					<path class="st1" d="M79.28,27.02c0.05,0.02,0.09,0.03,0.16,0.07C79.03,26.45,79.06,26.6,79.28,27.02z"/>
					<path class="st1" d="M42.28,67.15c0.01,0.02,0.04,0.05,0.05,0.07c0.02,0,0.05,0.01,0.07,0.02L42.28,67.15z"/>
					<path class="st1" d="M41.81,65.69c1.44,1.65,1.1,1.63,0.58,1.55l4.02,2.99L41.81,65.69z"/>
					<path class="st1" d="M61.74,40.7l-1.57-0.55c-1.53-2.18-0.52-2-2.55-2.98c4.13,3.54-1.01,2.09,3.11,5.62l-1.12-0.44
						c0.11-0.05-0.12-0.27-0.01-0.32c-2.47-1.09,2.67,2.93,1.46,3.18c-0.53-0.01-1.29-0.33-1.64-0.92l0.56,1.43
						c-0.22,0.1-0.91-0.55-0.69-0.64l-0.39,1.15l-0.12-0.11c0.55,0.67,1.33,1.79,1.65,2.29c-0.78-0.28-0.35-0.48-0.92-0.85
						l0.61,1.32c-1.25-0.71-1.96-1.98-1.53-2.18c-4.55-3.02,0.72,1.27-2.53,0.22l-0.15-0.9c-2.61-1.68-2.05-0.61-3.96-1.32
						c0.87,0.52,4.58,2.06,5.18,3.45c-0.44-0.11-0.75-0.04-0.14,0.94c-1.49-1.23-1.35-0.65-1.55-0.24l-1.95-1.66
						c0.26,0.85,1.28,1.65,1.99,2.6c-0.54,0.25-2.13-0.93-3.5-1.9c-0.87,0.41,2.83,1.57,2.54,2.67c-1.21-0.07-0.73,0.99-0.11,2.63
						c-1-0.18-1.15-1.07-1.83-1.4l1.28,1.65c-0.11,0.05-0.57-0.38-0.8-0.59c0.37,0.8,1.95,1.66,2.1,2.56
						c2.07,1.92-3.94-1.7-1.95,0.91c-0.67-0.33-1.15-1.07-1.95-1.66c0.97,2.12,0.62,1.64,2.27,4.08l-1.74-0.53
						c1.81,0.83,3.13,2.79,4.2,4.43c0.83,0.45,1.56,0.85,1.92,1.02l0.47,1.59c-0.39-0.18-1.01-0.82-1.74-1.62
						c0.12,0.18,0.24,0.36,0.36,0.52c-0.94-0.35-1.96-1.43-2.91-2.52c0.46,0.24,0.95,0.49,1.43,0.75c-1.05-1.17-2.24-2.43-3.42-3.36
						c0.19,0.24,0.31,0.49,0.34,0.68c-0.29-0.32-0.55-0.59-0.77-0.73c-0.23-0.15,0.15,0.29,0.55,0.82l-2.33-1.66l0.84,0.76
						l-2.14-0.21c1.65,2.5,4.43,5.78,4.45,7.59c-1.39-1.6-2.58-2.24-4.47-3.84c2.26,1.39-0.18-1.53,0.69-1.74
						c-0.45,0.11-1.31-0.71-1.56-1.04l1.02,2.5c-1.54-1.32-1.34-0.76-2.2-1.05c3.24,2.37,1.45,2.43,2.06,3.61
						c-1.05-0.83-2.03-1.81-1.38-2.08c-2.76-1.4,3.04,3.7,0.64,2.58c0.07-0.14,0.28-0.07-0.2-0.56c0.69,1.04-0.6,1.11-1.37,0.2
						l0.08-0.14c-1.02,0.48-2.01,2.37,0.51,4.66c-0.35-0.27-3.07-2.72-3.56-3.21l7.64,8.72c-2.14-1.99-7.89-5.97-8.62-7.67
						c-0.48-0.08-1.04-0.16-0.57,0.9c0.43,0.14,3.51,2.38,3.57,2.73c-2.9-1.6-1.61-0.78-4.24-1.96c0.64,0.21,3.99,3.35,3.62,3.56
						c-0.49-0.48-3.5-2.86-3.77-3.28l2.83,3.63c-0.47-0.71-2.9-2.47-4.02-3.12c0.74,0.49-0.6,0.6-0.43,1.08l1.07,0.35
						c-1.23,0.41,4.17,4.88,3.29,5.57c-0.63-0.69-4.19-3.91-4.98-3.84c1.61,1.67,7.8,7.95,8.54,9.83l-1.13-0.7l0.68,1.53
						c-2.37-2.57-7.15-8.23-8.88-10.59c-1.07-0.35-1.27-0.91-1.57-0.35c-1.09-0.62-1.22-1.46-1.16-1.64l-1.53,0.6
						c2.11,1.67,1.37,2.57,3.13,3.96l-1.15-2.98c2.11,1.67,5.29,5.57,4.28,6.06c-0.99-0.49-3.56-3.21-4.26-3.77
						c0.63,0.69,0.74,1.87,0.18,1.53l-0.83-1.25c-1.14-0.21,2.15,2.99-0.26,1.87c-0.28,0.07-3.11-1.67-1.91-0.62
						c2.61,1.67,9.95,7.68,11.56,9.35c-0.21-0.07-3.05-0.92-4.38-1.69c-2.1-1.24-4.04-4.11-5.84-5.18c0.56,0.48,1.12,1.22,1.28,1.48
						c-0.64-0.21-1.69-1.53-1.77-0.91c2.04,1.81-0.88,0.69,1.61,1.67c0.26,0.9-0.79,0.07-1.09,0.62c1.48,0.97,4.25,4.26,4.52,5.16
						c-0.51-0.47-1.28-0.95-1.64-1.17c-0.88,0.67-2.2,0.32-2.86,1.08c-0.57-0.35-1.49-0.49-2.26-1.4c0.28,0.42,0.91,1.11,0.76,1.39
						c-2.2-1.05,0.16-0.76-2.31-2.23c1.19,1.04,1.17,2.02,1.65,2.99c1.97,1.46,1.01-0.48,0.54-1.46c2.6,2.16,4.82,5.01,5.35,6.81
						c0.11,1.18-1.91-1.12-1.63-0.7c-1.45,0.83,3.68,4.79,0.97,4.24c-1.98-0.98-3.3-2.71-4.57-3.62c-0.19-1.04,1.72,0.07,1.94-0.34
						l-1.15-0.21c-0.41-0.62-0.54-1.32,0.1-1.11c-1.76-0.9-1.98,1.8-4.12,1.59c0.42,0.62,0.75,1.39,1.53,1.81l0.01-0.49
						c1.56,0.84,1.38,2.09,2.32,2.23c0.61,1.17,1.72,2.84,0.5,2.77l-1.97-1.46c0.56,0.45,1.42,0.57,0.98-0.06
						c0.64,0.93-3.26-1.27-1,1.04l1.63,0.7c0.62,1.18,2.21,3.34,1.21,3.34c2.05,1.32-0.12-0.29,2.35,1.17
						c-2.96-1.95,1.16-1.16-2.09-3.04c2.83,1.74,1.59,0.27,4.14,1.59c-0.63-0.5-1.33-0.82-0.68-0.98c-0.17-0.17-0.36-0.41-0.47-0.55
						c0.03,0,0.04,0.01,0.07,0.01c-0.03-0.01-0.06-0.03-0.09-0.04c-0.08-0.1-0.1-0.11-0.03-0.01c-0.36-0.13-0.75-0.32-1.12-0.58
						c-1.26-1.39-0.67-2.01-1.22-2.85c0.5,0,0.63,0.7,1.4,1.11l-0.83-1.25c1.41,1.11,2.84,1.26,3.17,2.51l0.49-0.47
						c1.03,0.34,1.69,0.17,1.32-0.57c0.5,0-1.01-1.89-0.11-0.78l-0.18-1.53l0.35,0.28c0.84-0.66-0.91-3.56,2.35-2.4
						c-0.12-0.56-0.32-1.2,0.45-1.32l1.27,0.91c-0.13-0.69,2.06-0.05,0.94-1.23c3.53,2.3,2.11-1.1,3.18-1.24l-1.54-1.32
						c0.44-0.35,0.33-1.12,0.14-2.16l-1.4-1.11c-0.76-1.39,1.94-0.34,2.39-1.17c0.49,0.49,0.2,0.55-0.23,0.42
						c3.83,1.74-0.77-3.68,2.14-2.56c-0.34-0.61-0.06-0.61,0.4-0.46c-0.01,0.02,0,0.06,0.03,0.11c0.03-0.01,0.06-0.03,0.08-0.06
						c0.31,0.11,0.66,0.25,0.96,0.34c-0.4-0.2-0.74-0.35-0.93-0.39c0.09-0.17,0.11-0.54-0.05-1.05l1.56,1.14
						c0-0.03,0.01-0.05,0-0.09c0.73,0.24-0.56-0.76-1.77-1.57c-0.15-0.31-0.36-0.66-0.65-1.03c2.54,1.81-0.32-1.25,2.42,0.63
						c-1.12-1.18-0.01-1.89-2.53-4.18c0.35,0.28,0.57,0.35,0.49,0.48c0.5,0,1,0,0.45-0.83l1.97,1.46L51.2,75.2
						c1.42,0.63,2.2,1.05,3.38,2.58c-1.58-2.64-0.31-1.33-1.97-3.83l1.19,1.04c0.15-0.28-1.17-2.01-0.04-1.32
						c2.76,1.39,2.51-2.37,5.8-1.94c-3.81-2.72,2.13,0.7-0.6-1.66c0.91,0.62,1.55,0.83,2.1,1.67c-0.25-1.39,2.22,0.07,0.27-2.36
						c0.92,0.63,1.12,1.18,1.68,1.53c-0.14-0.21-0.55-0.84,0.01-0.49c0.56,0.35,0.63,0.69,0.9,1.11c0.45-0.83-2.1-3.08-4.51-5.17
						c1.46,0.6,1.45,0.29,0.05-1.31c0.91,0.54,1.92,1.03,1.84,1.71c0.32-0.15,2.44-0.54,0.49-2.2c0.56,0.34,0.43-0.23,0.26-0.48
						c0.58-0.46,0.8-0.36,1.07-1.07l-0.45-0.11c-2.19-2.19-0.15-0.9-0.07-1.58l0.23,0.21c2.56,0.41-0.45-1.12,2.33-0.49l-1.52-1.17
						c-3.1-2.73,2.61,0.67,1.88-0.92l-1.02-0.49c-0.82-1.22,5.05,2.7,5.71,2.71c0.33,0.16,0.35,0.48,0.47,0.74
						c2.57,0.72-1.84-1.71-1.77-2.71c1.14,0.75,2.53,2.35,3.07,2.1c1.02,0.49-2.38-4.03,0.1-2.93c-0.91-0.54-1.81-1.08-2.18-1.87
						c0.08-0.68,4.03,1.33,1.83-1.18c0.27,0.13,0.5,0.28,0.7,0.45c-0.37-0.88-0.17-2-1.38-3.35c5.35,3.92-0.73-4.16,3.96-0.25
						l0.61-1.25l0.46,0.43c0.86-0.41-0.07-1.58-1-2.75c0.45,0.11,0.79,0.59,1.03,0.81c1.76-0.18,1.64-0.45-0.03-3.21l1.6,1.18
						c-0.7-0.96,3.56,0.58,2.57-1.85c0.17,0.15,0.45,0.42,0.6,0.67c-0.9-2.56,6.36,0.95,1.13-4.06l-0.78-1.84
						c-1.19,0.56-2.3-2.14-3.53-2.53c-0.03-0.63,2.45,0.46,2.37,1.14l-0.34-0.16c2.76,2.57,1.97-0.28,3.92,1.38
						c1.35-1.92,4.41-2.34,5.94-3.93l-2.41-1.68l0.62-0.48c0.65,0.28,1.93,1.26,1.49,1.6c1.46,0.84-0.49-1.59-0.96-2.01
						c1.59-0.06,2.36,2.5,2.62,2.29l0.12-0.48l-0.33-0.14c-0.69-1.04-1.64-1.88-1.11-2.29c0.72,0.06,1.52,0.99,1.71,0.94
						c0.16,0.14,0.27,0.15,0.23-0.14l0.81-0.58l-2.02-1.18c-0.6-1.06,0.67-0.62-1.62-1.95c3.52,2.08,3.41-1.84,4.63-1.35
						c-0.91-1.54-0.51-1.97,0.11-2.4c-0.49-0.17-2.55-1.74-1.91-2.03c3.97,3.6,2.53,0.6,5.82,2.67c-2.26-1.28,0.66-1.78-2.59-3.55
						c0.67-0.13,1.56,1.26,2.79,1.76c-0.8-2.29,2.8-1.26,3.25-2.9c-0.53-0.47-1.52-0.96-2.11-1.88l3.23,1.62
						c-0.07-0.45-2.94-2.81-0.71-1.68c-0.51-0.32-1.27-0.8-1.31-1.1c4.57-0.14,1.8-6.56,8.73-4.81c-1.32-0.55-1.24-0.85-1.08-1.13
						c-0.38-0.05-1.33-1.11-2.09-1.69l2.86,0.7c-1.88-1.87,0.75-1.18-1.11-2.9l0.09,0.61c-1.95-2.33-5.59-3.66-8.49-6.17
						c2.22,2.64-4.89-1.98-1.79,1.89c-0.74-0.33-0.83-0.93-1.59-1.41c1.1,1.24,1.17,1.7,0.24,1.66L95.42,5.7
						c-0.71,1.48-2.39,0.97-4.36,1.65l1.54,1.11c-0.44,0.13-0.95-0.18-1.43-0.35c1.93,2.18,0.81-0.72,2.99,1.61
						c-3.29-2.07-1.78,2.05-5.36-0.49c-0.4,0.44,1.8,1.27,1.4,1.71l-1.01-0.64l1.08,1.09c-0.44,0.14-1.71-0.66-2.49-1.29
						c0.15,0-0.04-0.38-0.05-0.52c-1.39-0.51-0.54,1.39-1,1.24l0.92,0.03c-0.18,1.95-2.63,2.47-1.77,5.21l0.76,0.48
						c0.51,1.97-1.36,0.1-1.61,1.6l-0.13-0.17c0.52,0.77,0.64,1.33,0.33,1.54c-0.6-0.92-1.96-0.82-2.58-1.9
						c0.54,2.13,0.67,1.38,2.68,4.16l-1.27-0.8c0.85,1.08,1.38,1.55,1.25,2.3c-0.64-1.22-2-1.12-2.91-2.66
						c-3.37-1.02,1.22,3.66-2.83,1.11c2.76,3.11,2.51,0.55,2.96,1.38c1.22,0.63,2.03,2.36,1.44,2.43c-0.35,0.28-4.52-2.79-5.16-1.89
						c0.09-0.07-0.15-0.28-0.07-0.35c-1.07-0.35,0.57,1.53-1.06,0.83c1.73,1.81-0.53,0.41,1.85,2.5l0.08-1.24
						c0.27,0.97,2.78,3.75,0.79,3.33c-0.44-0.46-0.91-1.22-1.15-1.66c-0.89-0.39,0.14,0.8-0.78,0.41c-2.38-2.09,0.25-1.38-1.21-3.4
						c-1.22-0.63,1.02,2.36-1.42-0.07c3.07,3.13-1.12,0.48,0.97,3.18l-1.43-1.25c0.15,0.28,0.69,1.04,0.51,1.18l-1.64-1.88
						c1.23,1.81-2.16-0.28-1.65,0.89c0.73-0.97,1.93,1.25,3.33,1.75c1,2.77-4.37-2.51-4.74-0.65c-0.06-0.35,1.42,0.07,1.87,0.91
						c-0.5-0.01-1.33-0.15-2.23-0.64c-0.4,1.11,1.61,1.12,2.21,2.23c-2.02-1.19,0.38,1.02,0.63,1.87l-1.49-1.23
						c-1.76,0.18,2.88,2.83,1,2.75l-1.75-2.08l0.15,0.9l-1.61-1.5c0.84,1.54,0.39,1.42-0.49,1.51c1.14,0.75,2.64,2.3,2.33,2.77
						c-1.12-0.44-1.27-1.34-1.57-0.55c-0.81-0.91-1.85-2.03-0.27-1.16c-0.46-0.43-0.82-0.91-1.27-1.33
						c-1.27-0.53-0.89,0.6-1.06,0.84c0.13-0.04,0.29-0.07,0.54,0.05l1.32,2.59c-0.67-0.32-1.03-0.81-1.38-1.28
						c0.01,0.31,0.59,1.01,0.5,1.37c-1.15-1.07-2.41-2.09-2.67-2.93l0.64,1.95c-0.57-0.38-1.8-0.77-2.15-1.24
						c-1.1-0.12,1.39,3.09-0.06,2.93c0.21,0.23,0.38,0.48,0.44,0.75c-0.76,0.36-2.66-0.36-1.58,1.7l-2.49-1.41
						c0.04,0.95,3.16,1.74,3.23,3.31c0.16,1.21-2.04-1.3-2.83-1.57c0.83,1.22,2.59,3.62,0.34,2.74C61.3,40.9,61.75,41.02,61.74,40.7
						z M57.16,48.15c-0.2-0.39-0.95-1.44,0-0.81C58.75,48.91,57.84,48.34,57.16,48.15z M52.32,61.24c-0.41-0.5-0.04-0.45,0.66-0.15
						C53,61.32,52.83,61.41,52.32,61.24z M39.22,98.02c-0.02-0.03-0.03-0.04-0.06-0.07C39.98,98.14,39.66,98.05,39.22,98.02z
						 M38.08,98.08c0.16,0.23,0.37,0.4,0.6,0.55c-0.34-0.35-0.26-0.51-0.02-0.57C38.23,97.78,37.9,97.63,38.08,98.08z M90.84,33.44
						l-0.48-0.21C90.14,32.61,90.47,33.01,90.84,33.44z"/>
					<path class="st1" d="M51.25,58.41c0.28,0.17,0.57,0.39,0.85,0.61C51.89,58.77,51.61,58.53,51.25,58.41z"/>
					<path class="st1" d="M64.4,35.91c0.02,0,0.02-0.01,0.03-0.01c-0.08-0.08-0.17-0.17-0.25-0.24L64.4,35.91z"/>
					<path class="st1" d="M33.19,78.37c0.32,0.06,0.64,0.21,0.96,0.4C33.8,78.46,33.45,78.26,33.19,78.37z"/>
					<path class="st1" d="M37.97,103.35l-0.07-0.7c-0.08,0.25-0.46,0.04-0.77-0.06C37.48,102.86,38.05,103.21,37.97,103.35z"/>
					<path class="st1" d="M26.03,99.04c0.14,0.21-0.08,0.14,0.06,0.34l0.7,0.56C26.94,99.66,26.52,99.03,26.03,99.04z"/>
					<path class="st1" d="M32.75,99.6c-1.27-1.01-1.05-0.42-1.04,0.05c0.01-0.02,0.01-0.04,0.04-0.05
						C33.42,101.13,33.09,100.37,32.75,99.6z"/>
					<path class="st1" d="M31.7,99.75c-0.01,0.13-0.05,0.24-0.18,0.27C32.19,100.63,31.75,100.04,31.7,99.75z"/>
					<path class="st1" d="M38.28,99.53c-0.43-0.14,1.53,1.41,0.96,1.06C40.71,102.05,38.02,98.14,38.28,99.53z"/>
					<polygon class="st1" points="28.45,96.4 30.07,97.59 28.96,96.4 					"/>
					<path class="st1" d="M31.35,95.23l-0.78,0.07c0.26,0.21,0.37,0.39,0.43,0.55C31.26,95.63,31.81,95.59,31.35,95.23z"/>
					<path class="st1" d="M30.99,95.85c-0.14,0.11-0.22,0.27-0.03,0.56C31.01,96.32,31.09,96.12,30.99,95.85z"/>
					<polygon class="st1" points="28.48,95.43 28.9,95.57 29.27,95.36 					"/>
					<path class="st1" d="M35.47,90.87l-0.05-0.83c-0.49-0.49-0.92-0.63-0.85-0.28C34.84,90.17,34.9,90.51,35.47,90.87z"/>
					<path class="st1" d="M30.07,88.77c0.43,0.14,0.78,0.42,1.34,0.77l-1.9-1.6L30.07,88.77z"/>
					<path class="st1" d="M30.76,87.04c-0.49-0.49-0.96-1.94-1.33-1.25C29.92,86.27,29.97,87.11,30.76,87.04z"/>
					<polygon class="st1" points="39.03,82 38.96,82.14 42.11,84.73 					"/>
					<path class="st1" d="M36.7,69.56c-1.21-0.07,1.83,1.74,0.47,1.46c0.63,0.75,1.11,0.23,1.63,0.89
						C38.3,70.93,38.89,71.12,36.7,69.56z"/>
					<path class="st1" d="M38.81,71.92c0.08,0.16,0.18,0.34,0.33,0.56C39.02,72.22,38.91,72.05,38.81,71.92z"/>
					<polygon class="st1" points="110.51,13.01 111.46,13.19 110.21,12.55 					"/>
					<path class="st1" d="M108.75,10.39l2.07,1.58l-1.63-1.72C109.21,10.41,109.25,10.7,108.75,10.39z"/>
					<path class="st1" d="M52.32,45.8l0.46,0.43c0.57,0.38,0.67,0.32,0.89,0.23L52.32,45.8z"/>
					<polygon class="st1" points="57.83,42.21 57.72,42.26 59.66,43.61 					"/>
					<path class="st1" d="M58.9,36.24c-0.21,0.1,0.03,0.63-0.19,0.73C58.69,36.34,61.19,38.07,58.9,36.24z"/>
				</g>
			</g>
		</g>
	</g>
</g>
</svg>
